<svg xmlns="http://www.w3.org/2000/svg" width="104" height="32" viewBox="0 0 104 32" role="img" aria-label="Drizzle">
<rect x=".5" y=".5" width="103" height="31" rx="9" fill="#12161d" stroke="#2d333b"/>
<g transform="translate(11.5 8.5) scale(0.6267)" color="#ff8a3d"><path fill="currentColor" d="M5.353 11.823a1.036 1.036 0 0 0-.395-1.422 1.063 1.063 0 0 0-1.437.399L.138 16.702a1.035 1.035 0 0 0 .395 1.422 1.063 1.063 0 0 0 1.437-.398l3.383-5.903Zm11.216 0a1.036 1.036 0 0 0-.394-1.422 1.064 1.064 0 0 0-1.438.399l-3.382 5.902a1.036 1.036 0 0 0 .394 1.422c.506.283 1.15.104 1.438-.398l3.382-5.903Zm7.293-4.525a1.036 1.036 0 0 0-.395-1.422 1.062 1.062 0 0 0-1.437.399l-3.383 5.902a1.036 1.036 0 0 0 .395 1.422 1.063 1.063 0 0 0 1.437-.399l3.383-5.902Zm-11.219 0a1.035 1.035 0 0 0-.394-1.422 1.064 1.064 0 0 0-1.438.398l-3.382 5.903a1.036 1.036 0 0 0 .394 1.422c.506.282 1.15.104 1.438-.399l3.382-5.902Z"/></g>
<text x="35.5" y="20.4" font-family="ui-monospace, SFMono-Regular, 'SF Mono', Menlo, Consolas, 'Liberation Mono', monospace" font-size="12.5" font-weight="600" fill="#e6edf3" textLength="54.3" lengthAdjust="spacing">Drizzle</text>
</svg>
